<svg width="54" height="54" viewBox="0 0 54 54" fill="none" xmlns="http://www.w3.org/2000/svg">
<path d="M27 0.333496C21.7258 0.333496 16.5701 1.89747 12.1848 4.82764C7.79947 7.75781 4.38154 11.9226 2.3632 16.7953C0.344867 21.668 -0.183222 27.0297 0.845717 32.2026C1.87466 37.3754 4.41441 42.1269 8.14381 45.8563C11.8732 49.5857 16.6248 52.1255 21.7976 53.1544C26.9704 54.1834 32.3322 53.6553 37.2049 51.6369C42.0776 49.6186 46.2423 46.2007 49.1725 41.8154C52.1027 37.43 53.6666 32.2743 53.6666 27.0002C53.6531 19.9319 50.8392 13.157 45.8412 8.15895C40.8432 3.16092 34.0683 0.34705 27 0.333496ZM36.6667 33.7437C37.0518 34.1327 37.2679 34.6579 37.2679 35.2053C37.2679 35.7527 37.0518 36.2779 36.6667 36.6668C36.2746 37.0459 35.7505 37.2579 35.2051 37.2579C34.6597 37.2579 34.1357 37.0459 33.7436 36.6668L27 29.8976L20.2564 36.6668C19.8643 37.0459 19.3403 37.2579 18.7949 37.2579C18.2495 37.2579 17.7254 37.0459 17.3333 36.6668C16.9481 36.2779 16.732 35.7527 16.732 35.2053C16.732 34.6579 16.9481 34.1327 17.3333 33.7437L24.1026 27.0002L17.3333 20.2566C17.0062 19.858 16.8391 19.352 16.8643 18.8371C16.8896 18.3221 17.1056 17.8349 17.4702 17.4703C17.8347 17.1058 18.3219 16.8898 18.8369 16.8645C19.3519 16.8392 19.8578 17.0064 20.2564 17.3335L27 24.1027L33.7436 17.3335C34.1421 17.0064 34.6481 16.8392 35.1631 16.8645C35.6781 16.8898 36.1652 17.1058 36.5298 17.4703C36.8944 17.8349 37.1103 18.3221 37.1356 18.8371C37.1609 19.352 36.9938 19.858 36.6667 20.2566L29.8974 27.0002L36.6667 33.7437Z" fill="#CF6679"/>
</svg>
