<svg width="55" height="54" viewBox="0 0 55 54" fill="none" xmlns="http://www.w3.org/2000/svg">
<path fill-rule="evenodd" clip-rule="evenodd" d="M0.833313 27.0002C0.833313 12.2726 12.7724 0.333496 27.5 0.333496C42.2205 0.35051 54.1496 12.2796 54.1666 27.0002C54.1666 41.7278 42.2276 53.6668 27.5 53.6668C12.7724 53.6668 0.833313 41.7278 0.833313 27.0002ZM25.1562 36.6898L40.2002 22.3308C41.0183 21.5472 41.047 20.2491 40.2645 19.43C39.4819 18.6109 38.1838 18.5805 37.3637 19.3621L23.7379 32.3689L17.6361 26.5416C16.8161 25.76 15.518 25.7904 14.7354 26.6095C13.9528 27.4285 13.9815 28.7267 14.7996 29.5103L22.3196 36.6898C23.1141 37.4457 24.3617 37.4457 25.1562 36.6898Z" fill="#C6AEFA"/>
</svg>
